<svg width="64" height="10" viewBox="0 0 64 10" fill="none" xmlns="http://www.w3.org/2000/svg">
<path d="M2.86895 9.42525C2.16895 9.42525 1.57695 9.25925 1.09295 8.92725C0.612953 8.59525 0.248953 8.10925 0.000953138 7.46925L0.972953 7.07325C1.34095 7.97725 1.97295 8.42925 2.86895 8.42925C3.42895 8.42925 3.86895 8.29525 4.18895 8.02725C4.50895 7.75525 4.66895 7.38925 4.66895 6.92925C4.66895 6.44925 4.51495 6.07525 4.20695 5.80725C3.90295 5.53925 3.47695 5.40525 2.92895 5.40525H2.32895V4.42125H2.86895C3.31295 4.42125 3.66895 4.29925 3.93695 4.05525C4.20895 3.80725 4.34495 3.48525 4.34495 3.08925C4.34495 2.67325 4.21295 2.34125 3.94895 2.09325C3.68495 1.84525 3.33695 1.72125 2.90495 1.72125C2.54095 1.72125 2.21295 1.81725 1.92095 2.00925C1.63295 2.20125 1.40495 2.48125 1.23695 2.84925L0.264953 2.47725C0.476953 1.92925 0.814953 1.50325 1.27895 1.19925C1.74695 0.89125 2.28895 0.73725 2.90495 0.73725C3.39295 0.73725 3.82695 0.83525 4.20695 1.03125C4.59095 1.22325 4.89095 1.48725 5.10695 1.82325C5.32695 2.15925 5.43695 2.54125 5.43695 2.96925C5.43695 3.35725 5.34095 3.71525 5.14895 4.04325C4.95695 4.36725 4.69295 4.61725 4.35695 4.79325C4.80895 4.97325 5.15495 5.24525 5.39495 5.60925C5.63895 5.97325 5.76095 6.40125 5.76095 6.89325C5.76095 7.38525 5.63695 7.82125 5.38895 8.20125C5.14495 8.58125 4.80495 8.88125 4.36895 9.10125C3.93295 9.31725 3.43295 9.42525 2.86895 9.42525ZM10.3305 9.42525C9.76652 9.42525 9.29452 9.29925 8.91452 9.04725C8.53852 8.79525 8.23852 8.45925 8.01452 8.03925C7.79052 7.61525 7.63052 7.14725 7.53452 6.63525C7.43852 6.11925 7.39052 5.60125 7.39052 5.08125C7.39052 4.71325 7.41652 4.32925 7.46852 3.92925C7.52452 3.52525 7.61652 3.13525 7.74452 2.75925C7.87252 2.37925 8.04852 2.03725 8.27252 1.73325C8.49652 1.42925 8.77652 1.18725 9.11252 1.00725C9.45252 0.82725 9.85852 0.73725 10.3305 0.73725C10.8945 0.73725 11.3645 0.86525 11.7405 1.12125C12.1205 1.37325 12.4225 1.71125 12.6465 2.13525C12.8705 2.55925 13.0305 3.02725 13.1265 3.53925C13.2225 4.05125 13.2705 4.56525 13.2705 5.08125C13.2705 5.44925 13.2425 5.83525 13.1865 6.23925C13.1305 6.63925 13.0365 7.02925 12.9045 7.40925C12.7765 7.78525 12.6005 8.12525 12.3765 8.42925C12.1525 8.73325 11.8725 8.97525 11.5365 9.15525C11.2005 9.33525 10.7985 9.42525 10.3305 9.42525ZM10.3305 8.44125C10.7105 8.44125 11.0205 8.33925 11.2605 8.13525C11.5005 7.92725 11.6865 7.65725 11.8185 7.32525C11.9505 6.98925 12.0405 6.62525 12.0885 6.23325C12.1405 5.84125 12.1665 5.45725 12.1665 5.08125C12.1665 4.66525 12.1385 4.25925 12.0825 3.86325C12.0265 3.46325 11.9305 3.10125 11.7945 2.77725C11.6625 2.44925 11.4765 2.18925 11.2365 1.99725C11.0005 1.80525 10.6985 1.70925 10.3305 1.70925C9.94652 1.70925 9.63252 1.81325 9.38852 2.02125C9.14452 2.22525 8.95652 2.49525 8.82452 2.83125C8.69252 3.16725 8.60052 3.53325 8.54852 3.92925C8.49652 4.32125 8.47052 4.70525 8.47052 5.08125C8.47052 5.49325 8.49852 5.89925 8.55452 6.29925C8.61052 6.69925 8.70652 7.06125 8.84252 7.38525C8.98252 7.70525 9.17252 7.96125 9.41252 8.15325C9.65652 8.34525 9.96252 8.44125 10.3305 8.44125ZM15.5217 5.11725C15.2897 5.11725 15.0937 5.03525 14.9337 4.87125C14.7737 4.70725 14.6937 4.51725 14.6937 4.30125C14.6937 4.08525 14.7737 3.89325 14.9337 3.72525C15.0937 3.55725 15.2897 3.47325 15.5217 3.47325C15.7577 3.47325 15.9557 3.55725 16.1157 3.72525C16.2797 3.89325 16.3617 4.08525 16.3617 4.30125C16.3617 4.51725 16.2797 4.70725 16.1157 4.87125C15.9557 5.03525 15.7577 5.11725 15.5217 5.11725ZM15.5217 9.43725C15.2897 9.43725 15.0937 9.35525 14.9337 9.19125C14.7737 9.02725 14.6937 8.83725 14.6937 8.62125C14.6937 8.40525 14.7737 8.21325 14.9337 8.04525C15.0937 7.87725 15.2897 7.79325 15.5217 7.79325C15.7577 7.79325 15.9557 7.87725 16.1157 8.04525C16.2797 8.21325 16.3617 8.40525 16.3617 8.62125C16.3617 8.83725 16.2797 9.02725 16.1157 9.19125C15.9557 9.35525 15.7577 9.43725 15.5217 9.43725ZM20.725 9.42525C20.161 9.42525 19.689 9.29925 19.309 9.04725C18.933 8.79525 18.633 8.45925 18.409 8.03925C18.185 7.61525 18.025 7.14725 17.929 6.63525C17.833 6.11925 17.785 5.60125 17.785 5.08125C17.785 4.71325 17.811 4.32925 17.863 3.92925C17.919 3.52525 18.011 3.13525 18.139 2.75925C18.267 2.37925 18.443 2.03725 18.667 1.73325C18.891 1.42925 19.171 1.18725 19.507 1.00725C19.847 0.82725 20.253 0.73725 20.725 0.73725C21.289 0.73725 21.759 0.86525 22.135 1.12125C22.515 1.37325 22.817 1.71125 23.041 2.13525C23.265 2.55925 23.425 3.02725 23.521 3.53925C23.617 4.05125 23.665 4.56525 23.665 5.08125C23.665 5.44925 23.637 5.83525 23.581 6.23925C23.525 6.63925 23.431 7.02925 23.299 7.40925C23.171 7.78525 22.995 8.12525 22.771 8.42925C22.547 8.73325 22.267 8.97525 21.931 9.15525C21.595 9.33525 21.193 9.42525 20.725 9.42525ZM20.725 8.44125C21.105 8.44125 21.415 8.33925 21.655 8.13525C21.895 7.92725 22.081 7.65725 22.213 7.32525C22.345 6.98925 22.435 6.62525 22.483 6.23325C22.535 5.84125 22.561 5.45725 22.561 5.08125C22.561 4.66525 22.533 4.25925 22.477 3.86325C22.421 3.46325 22.325 3.10125 22.189 2.77725C22.057 2.44925 21.871 2.18925 21.631 1.99725C21.395 1.80525 21.093 1.70925 20.725 1.70925C20.341 1.70925 20.027 1.81325 19.783 2.02125C19.539 2.22525 19.351 2.49525 19.219 2.83125C19.087 3.16725 18.995 3.53325 18.943 3.92925C18.891 4.32125 18.865 4.70525 18.865 5.08125C18.865 5.49325 18.893 5.89925 18.949 6.29925C19.005 6.69925 19.101 7.06125 19.237 7.38525C19.377 7.70525 19.567 7.96125 19.807 8.15325C20.051 8.34525 20.357 8.44125 20.725 8.44125ZM25.4123 9.28125C25.4123 8.72925 25.4903 8.24325 25.6463 7.82325C25.8063 7.39925 26.0183 7.02725 26.2823 6.70725C26.5503 6.38325 26.8503 6.09725 27.1823 5.84925C27.5143 5.60125 27.8523 5.37725 28.1963 5.17725C28.4963 5.00125 28.7763 4.81725 29.0363 4.62525C29.2963 4.42925 29.5063 4.21125 29.6663 3.97125C29.8303 3.73125 29.9123 3.45325 29.9123 3.13725C29.9123 2.73325 29.7643 2.39525 29.4683 2.12325C29.1723 1.84725 28.7723 1.70925 28.2683 1.70925C27.7523 1.70925 27.3543 1.82325 27.0743 2.05125C26.7983 2.27525 26.6003 2.57325 26.4803 2.94525L25.5443 2.52525C25.7083 2.00925 26.0343 1.58325 26.5223 1.24725C27.0143 0.90725 27.6083 0.73725 28.3043 0.73725C28.8643 0.73725 29.3443 0.83925 29.7443 1.04325C30.1483 1.24725 30.4563 1.53125 30.6683 1.89525C30.8843 2.25925 30.9923 2.68125 30.9923 3.16125C30.9923 3.65325 30.8843 4.07125 30.6683 4.41525C30.4523 4.75525 30.1663 5.05525 29.8103 5.31525C29.4583 5.57525 29.0763 5.82525 28.6643 6.06525C28.3203 6.26525 28.0063 6.47325 27.7223 6.68925C27.4383 6.90125 27.2003 7.13525 27.0083 7.39125C26.8163 7.64725 26.6883 7.93725 26.6243 8.26125H31.0643V9.28125H25.4123ZM33.2639 5.11725C33.0319 5.11725 32.8359 5.03525 32.6759 4.87125C32.5159 4.70725 32.4359 4.51725 32.4359 4.30125C32.4359 4.08525 32.5159 3.89325 32.6759 3.72525C32.8359 3.55725 33.0319 3.47325 33.2639 3.47325C33.4999 3.47325 33.6979 3.55725 33.8579 3.72525C34.0219 3.89325 34.1039 4.08525 34.1039 4.30125C34.1039 4.51725 34.0219 4.70725 33.8579 4.87125C33.6979 5.03525 33.4999 5.11725 33.2639 5.11725ZM33.2639 9.43725C33.0319 9.43725 32.8359 9.35525 32.6759 9.19125C32.5159 9.02725 32.4359 8.83725 32.4359 8.62125C32.4359 8.40525 32.5159 8.21325 32.6759 8.04525C32.8359 7.87725 33.0319 7.79325 33.2639 7.79325C33.4999 7.79325 33.6979 7.87725 33.8579 8.04525C34.0219 8.21325 34.1039 8.40525 34.1039 8.62125C34.1039 8.83725 34.0219 9.02725 33.8579 9.19125C33.6979 9.35525 33.4999 9.43725 33.2639 9.43725ZM36.4992 9.28125V2.58525H35.0952V1.87725C35.3712 1.87725 35.6212 1.84725 35.8452 1.78725C36.0692 1.72325 36.2612 1.61925 36.4212 1.47525C36.5812 1.33125 36.7032 1.13325 36.7872 0.881249H37.5432V9.28125H36.4992ZM42.9438 9.42525C42.3798 9.42525 41.9078 9.29925 41.5278 9.04725C41.1518 8.79525 40.8518 8.45925 40.6278 8.03925C40.4038 7.61525 40.2438 7.14725 40.1478 6.63525C40.0518 6.11925 40.0038 5.60125 40.0038 5.08125C40.0038 4.71325 40.0298 4.32925 40.0818 3.92925C40.1378 3.52525 40.2298 3.13525 40.3578 2.75925C40.4858 2.37925 40.6618 2.03725 40.8858 1.73325C41.1098 1.42925 41.3898 1.18725 41.7258 1.00725C42.0658 0.82725 42.4718 0.73725 42.9438 0.73725C43.5078 0.73725 43.9778 0.86525 44.3538 1.12125C44.7338 1.37325 45.0358 1.71125 45.2598 2.13525C45.4838 2.55925 45.6438 3.02725 45.7398 3.53925C45.8358 4.05125 45.8838 4.56525 45.8838 5.08125C45.8838 5.44925 45.8558 5.83525 45.7998 6.23925C45.7438 6.63925 45.6498 7.02925 45.5178 7.40925C45.3898 7.78525 45.2138 8.12525 44.9898 8.42925C44.7658 8.73325 44.4858 8.97525 44.1498 9.15525C43.8138 9.33525 43.4118 9.42525 42.9438 9.42525ZM42.9438 8.44125C43.3238 8.44125 43.6338 8.33925 43.8738 8.13525C44.1138 7.92725 44.2998 7.65725 44.4318 7.32525C44.5638 6.98925 44.6538 6.62525 44.7018 6.23325C44.7538 5.84125 44.7798 5.45725 44.7798 5.08125C44.7798 4.66525 44.7518 4.25925 44.6958 3.86325C44.6398 3.46325 44.5438 3.10125 44.4078 2.77725C44.2758 2.44925 44.0898 2.18925 43.8498 1.99725C43.6138 1.80525 43.3118 1.70925 42.9438 1.70925C42.5598 1.70925 42.2458 1.81325 42.0018 2.02125C41.7578 2.22525 41.5698 2.49525 41.4378 2.83125C41.3058 3.16725 41.2138 3.53325 41.1618 3.92925C41.1098 4.32125 41.0838 4.70525 41.0838 5.08125C41.0838 5.49325 41.1118 5.89925 41.1678 6.29925C41.2238 6.69925 41.3198 7.06125 41.4558 7.38525C41.5958 7.70525 41.7858 7.96125 42.0258 8.15325C42.2698 8.34525 42.5758 8.44125 42.9438 8.44125Z" fill="white" fill-opacity="0.5"/>
<path d="M59.3652 4.78125C59.3652 3.84375 58.9199 3 58.2402 2.4375L59.1309 1.71094C59.9746 2.46094 60.4902 3.5625 60.4902 4.78125C60.4902 6 59.9512 7.10156 59.1309 7.85156L58.2402 7.125C58.9199 6.5625 59.3652 5.71875 59.3652 4.78125ZM51.584 0L52.4512 0.75C51.3965 1.75781 50.7402 3.1875 50.7402 4.78125C50.7402 6.375 51.3965 7.80469 52.4512 8.83594L51.584 9.5625C50.3652 8.34375 49.6152 6.65625 49.6152 4.78125C49.6152 2.92969 50.3652 1.24219 51.584 0ZM54.4902 7.125L53.5996 7.85156C52.7793 7.10156 52.2402 6 52.2402 4.78125C52.2402 3.5625 52.7793 2.46094 53.5996 1.71094L54.4902 2.4375C53.8105 3 53.3652 3.84375 53.3652 4.78125C53.3652 5.71875 53.8105 6.5625 54.4902 7.125ZM61.1465 9.5625L60.2793 8.83594C61.334 7.80469 61.9902 6.375 61.9902 4.78125C61.9902 3.1875 61.334 1.75781 60.2793 0.75L61.1465 0C62.3652 1.24219 63.1152 2.92969 63.1152 4.78125C63.1152 6.65625 62.3652 8.34375 61.1465 9.5625ZM56.3652 3.65625C56.998 3.65625 57.4902 4.14844 57.4902 4.78125C57.4902 5.41406 56.998 5.90625 56.3652 5.90625C55.7324 5.90625 55.2402 5.41406 55.2402 4.78125C55.2402 4.14844 55.7324 3.65625 56.3652 3.65625Z" fill="#FF0000"/>
</svg>
